<mxfile host="app.diagrams.net" agent="Mozilla/5.0 (Windows NT 10.0; Win64; x64) AppleWebKit/537.36 (KHTML, like Gecko) Chrome/133.0.0.0 Safari/537.36" version="26.0.16">
  <diagram id="07fea595-8f29-1299-0266-81d95cde20df" name="Page-1">
    <mxGraphModel dx="2283" dy="558" grid="1" gridSize="10" guides="1" tooltips="1" connect="1" arrows="1" fold="1" page="1" pageScale="1" pageWidth="1169" pageHeight="827" background="#ffffff" math="0" shadow="0">
      <root>
        <mxCell id="0" />
        <mxCell id="1" parent="0" />
        <mxCell id="170" value="" style="swimlane;whiteSpace=wrap;fillColor=none;swimlaneFillColor=#BAC8D3;fontColor=#2F5B7C;fontFamily=Tahoma;html=1;strokeColor=none;opacity=50;startSize=23;" parent="1" vertex="1">
          <mxGeometry x="24.5" y="88.5" width="160" height="650" as="geometry">
            <mxRectangle x="20" y="20" width="80" height="23" as="alternateBounds" />
          </mxGeometry>
        </mxCell>
        <mxCell id="171" value="inicio" style="whiteSpace=wrap;shadow=0;fontColor=#FFFFFF;fontFamily=Helvetica;fontStyle=0;html=1;fontSize=12;plain-purple;strokeColor=none;fillColor=#2f5b7c;gradientColor=none;spacing=6;verticalAlign=middle;" parent="170" vertex="1">
          <mxGeometry x="25" y="21.5" width="120" height="60" as="geometry" />
        </mxCell>
        <mxCell id="172" value="Assistir Video Aula de apresentação da Formação" style="whiteSpace=wrap;strokeColor=none;fillColor=#2f5b7c;shadow=0;fontColor=#FFFFFF;fontFamily=Helvetica;fontStyle=0;html=1;fontSize=12;spacing=6;verticalAlign=middle;" parent="170" vertex="1">
          <mxGeometry x="15" y="251.5" width="120" height="60" as="geometry" />
        </mxCell>
        <mxCell id="173" value="Módulo1: Assistir Video Aula 1 Apresentação ao Pensamento Computacional" style="whiteSpace=wrap;strokeColor=none;fillColor=#2f5b7c;shadow=0;fontColor=#FFFFFF;fontFamily=Helvetica;fontStyle=0;html=1;fontSize=12;spacing=6;verticalAlign=middle;" parent="170" vertex="1">
          <mxGeometry x="5" y="414.5" width="140" height="75" as="geometry" />
        </mxCell>
        <mxCell id="174" value="" style="edgeStyle=segmentEdgeStyle;strokeColor=#2F5B7C;strokeWidth=3;html=1;endArrow=block;endFill=1;" parent="170" source="172" target="173" edge="1">
          <mxGeometry width="100" height="100" relative="1" as="geometry">
            <mxPoint x="170" y="397.5" as="sourcePoint" />
            <mxPoint x="270" y="472.5" as="targetPoint" />
          </mxGeometry>
        </mxCell>
        <mxCell id="176" value="&lt;font color=&quot;#23497d&quot;&gt;Inside Sales Manager&lt;/font&gt;" style="swimlane;whiteSpace=wrap;fillColor=none;swimlaneFillColor=#BAC8D3;fontColor=#2F5B7C;fontFamily=Tahoma;html=1;strokeColor=none;opacity=25;" parent="1" vertex="1">
          <mxGeometry x="824.5" y="88.5" width="160" height="650" as="geometry">
            <mxRectangle x="20" y="20" width="80" height="23" as="alternateBounds" />
          </mxGeometry>
        </mxCell>
        <mxCell id="177" value="Sales Contract" style="shape=document;whiteSpace=wrap;verticalAlign=middle;strokeColor=none;fillColor=#12aab5;shadow=0;fontColor=#FFFFFF;fontFamily=Helvetica;fontStyle=0;html=1;fontSize=12;spacing=6;spacingBottom=22;" parent="176" vertex="1">
          <mxGeometry x="20" y="50" width="120" height="80" as="geometry" />
        </mxCell>
        <mxCell id="178" value="Bills" style="shape=document;whiteSpace=wrap;verticalAlign=middle;strokeColor=none;fillColor=#12aab5;shadow=0;fontColor=#FFFFFF;fontFamily=Helvetica;fontStyle=0;html=1;fontSize=12;spacing=6;spacingBottom=22;" parent="176" vertex="1">
          <mxGeometry x="20" y="530" width="120" height="80" as="geometry" />
        </mxCell>
        <mxCell id="179" value="Cost Allocation" style="whiteSpace=wrap;strokeColor=none;fillColor=#2f5b7c;shadow=0;fontColor=#FFFFFF;fontFamily=Helvetica;fontStyle=0;html=1;fontSize=12;spacing=6;verticalAlign=middle;" parent="176" vertex="1">
          <mxGeometry x="20" y="305" width="120" height="60" as="geometry" />
        </mxCell>
        <mxCell id="180" value="&lt;font color=&quot;#23497d&quot;&gt;VP Sales&lt;/font&gt;" style="swimlane;whiteSpace=wrap;fillColor=none;swimlaneFillColor=#BAC8D3;fontColor=#2F5B7C;fontFamily=Tahoma;html=1;strokeColor=none;opacity=50;" parent="1" vertex="1">
          <mxGeometry x="664.5" y="88.5" width="160" height="650" as="geometry">
            <mxRectangle x="20" y="20" width="80" height="23" as="alternateBounds" />
          </mxGeometry>
        </mxCell>
        <mxCell id="182" value="Account Processing" style="whiteSpace=wrap;strokeColor=none;fillColor=#2f5b7c;shadow=0;fontColor=#FFFFFF;fontFamily=Helvetica;fontStyle=0;html=1;fontSize=12;spacing=6;verticalAlign=middle;" parent="180" vertex="1">
          <mxGeometry x="20" y="420" width="120" height="60" as="geometry" />
        </mxCell>
        <mxCell id="187" value="" style="swimlane;whiteSpace=wrap;fillColor=none;swimlaneFillColor=#BAC8D3;fontColor=#2F5B7C;fontFamily=Tahoma;html=1;strokeColor=none;opacity=50;" parent="1" vertex="1">
          <mxGeometry x="340" y="89" width="160" height="650" as="geometry">
            <mxRectangle x="20" y="20" width="80" height="23" as="alternateBounds" />
          </mxGeometry>
        </mxCell>
        <mxCell id="188" value="Assistir Video Aula 1 Apresentação ao Pensamento Computacional" style="shape=document;whiteSpace=wrap;verticalAlign=middle;strokeColor=none;fillColor=#12aab5;shadow=0;fontColor=#FFFFFF;fontFamily=Helvetica;fontStyle=0;html=1;fontSize=12;spacing=6;spacingBottom=22;" parent="187" vertex="1">
          <mxGeometry x="5" y="31" width="145" height="89" as="geometry" />
        </mxCell>
        <mxCell id="189" value="Fazer Leitura do Livro -Pensamento Computacional" style="shape=document;whiteSpace=wrap;verticalAlign=middle;strokeColor=none;fillColor=#12aab5;shadow=0;fontColor=#FFFFFF;fontFamily=Helvetica;fontStyle=0;html=1;fontSize=12;spacing=6;spacingBottom=22;" parent="187" vertex="1">
          <mxGeometry x="10" y="201" width="150" height="89" as="geometry" />
        </mxCell>
        <mxCell id="190" value="Assistir Video Aula 2 Pilares do&amp;nbsp; Pensamento Computacional" style="shape=document;whiteSpace=wrap;strokeColor=none;fillColor=#12aab5;shadow=0;fontColor=#FFFFFF;fontFamily=Helvetica;fontStyle=0;html=1;fontSize=12;verticalAlign=middle;spacing=6;spacingBottom=22;" parent="187" vertex="1">
          <mxGeometry x="10" y="361.5" width="140" height="88.5" as="geometry" />
        </mxCell>
        <mxCell id="191" value="Fazer&amp;nbsp; a Atividade -Questionário" style="shape=document;whiteSpace=wrap;verticalAlign=middle;strokeColor=none;fillColor=#12aab5;shadow=0;fontColor=#FFFFFF;fontFamily=Helvetica;fontStyle=0;html=1;fontSize=12;spacing=6;spacingBottom=22;" parent="187" vertex="1">
          <mxGeometry x="20" y="520" width="120" height="80" as="geometry" />
        </mxCell>
        <mxCell id="EQkmZRZ84IHPWCdHU_sQ-227" value="" style="edgeStyle=elbowEdgeStyle;elbow=vertical;strokeColor=#12AAB5;strokeWidth=3;html=1;endArrow=block;endFill=1;exitX=0.754;exitY=0.717;exitDx=0;exitDy=0;exitPerimeter=0;" edge="1" parent="187" source="189">
          <mxGeometry x="144.5" y="534.5" width="100" height="100" as="geometry">
            <mxPoint x="110" y="281" as="sourcePoint" />
            <mxPoint x="75" y="366" as="targetPoint" />
          </mxGeometry>
        </mxCell>
        <mxCell id="EQkmZRZ84IHPWCdHU_sQ-222" value="" style="edgeStyle=elbowEdgeStyle;elbow=vertical;strokeColor=#12AAB5;strokeWidth=3;html=1;endArrow=block;endFill=1;" edge="1" parent="187">
          <mxGeometry x="144.5" y="534.5" width="100" height="100" as="geometry">
            <mxPoint x="120" y="86" as="sourcePoint" />
            <mxPoint x="90" y="201" as="targetPoint" />
          </mxGeometry>
        </mxCell>
        <mxCell id="EQkmZRZ84IHPWCdHU_sQ-249" value="" style="edgeStyle=elbowEdgeStyle;elbow=vertical;strokeColor=#12AAB5;strokeWidth=3;html=1;endArrow=block;endFill=1;exitX=0.754;exitY=0.717;exitDx=0;exitDy=0;exitPerimeter=0;" edge="1" parent="187">
          <mxGeometry x="-195.5" y="445.5" width="100" height="100" as="geometry">
            <mxPoint x="109" y="421" as="sourcePoint" />
            <mxPoint x="61" y="522" as="targetPoint" />
          </mxGeometry>
        </mxCell>
        <mxCell id="196" value="Director" style="swimlane;whiteSpace=wrap;fillColor=none;swimlaneFillColor=#BAC8D3;fontColor=#2F5B7C;fontFamily=Tahoma;html=1;strokeColor=none;opacity=50;" parent="1" vertex="1">
          <mxGeometry x="984.5" y="88.5" width="160" height="650" as="geometry">
            <mxRectangle x="20" y="20" width="80" height="23" as="alternateBounds" />
          </mxGeometry>
        </mxCell>
        <mxCell id="197" value="Outbounding Management" style="shape=document;whiteSpace=wrap;verticalAlign=middle;strokeColor=none;fillColor=#12aab5;shadow=0;fontColor=#FFFFFF;fontFamily=Helvetica;fontStyle=0;html=1;fontSize=12;spacing=6;spacingBottom=22;" parent="196" vertex="1">
          <mxGeometry x="20" y="130" width="120" height="80" as="geometry" />
        </mxCell>
        <mxCell id="198" value="Resources Allocation" style="whiteSpace=wrap;strokeColor=none;fillColor=#2f5b7c;shadow=0;fontColor=#FFFFFF;fontFamily=Helvetica;fontStyle=0;html=1;fontSize=12;spacing=6;verticalAlign=middle;" parent="196" vertex="1">
          <mxGeometry x="20" y="255" width="120" height="60" as="geometry" />
        </mxCell>
        <mxCell id="199" value="Long Term Strategy" style="whiteSpace=wrap;strokeColor=none;fillColor=#2f5b7c;shadow=0;fontColor=#FFFFFF;fontFamily=Helvetica;fontStyle=0;html=1;fontSize=12;spacing=6;verticalAlign=middle;" parent="196" vertex="1">
          <mxGeometry x="20" y="400" width="120" height="60" as="geometry" />
        </mxCell>
        <mxCell id="200" value="" style="edgeStyle=segmentEdgeStyle;strokeColor=#2F5B7C;strokeWidth=3;html=1;endArrow=block;endFill=1;" parent="196" source="198" target="199" edge="1">
          <mxGeometry width="100" height="100" relative="1" as="geometry">
            <mxPoint x="30" y="570" as="sourcePoint" />
            <mxPoint x="130" y="470" as="targetPoint" />
          </mxGeometry>
        </mxCell>
        <mxCell id="201" value="" style="edgeStyle=segmentEdgeStyle;entryX=0.25;entryY=0;strokeColor=#12AAB5;strokeWidth=3;html=1;endArrow=block;endFill=1;" parent="196" source="197" target="198" edge="1">
          <mxGeometry width="100" height="100" relative="1" as="geometry">
            <mxPoint x="-120" y="260" as="sourcePoint" />
            <mxPoint x="-20" y="160" as="targetPoint" />
          </mxGeometry>
        </mxCell>
        <mxCell id="214" value="" style="edgeStyle=segmentEdgeStyle;strokeColor=#2F5B7C;strokeWidth=3;html=1;endArrow=block;endFill=1;" parent="1" target="179" edge="1">
          <mxGeometry x="804.5" y="278.5" width="100" height="100" as="geometry">
            <mxPoint x="804.5" y="278.5" as="sourcePoint" />
            <mxPoint x="954.5" y="288.5" as="targetPoint" />
          </mxGeometry>
        </mxCell>
        <mxCell id="216" value="" style="edgeStyle=segmentEdgeStyle;strokeColor=#2F5B7C;strokeWidth=3;html=1;endArrow=block;endFill=1;" parent="1" source="179" target="199" edge="1">
          <mxGeometry x="964.5" y="423.5" width="100" height="100" as="geometry">
            <mxPoint x="1094.5" y="498.5" as="sourcePoint" />
            <mxPoint x="1194.5" y="398.5" as="targetPoint" />
          </mxGeometry>
        </mxCell>
        <mxCell id="217" value="" style="edgeStyle=segmentEdgeStyle;strokeColor=#12AAB5;strokeWidth=3;html=1;endArrow=block;endFill=1;" parent="1" source="177" target="197" edge="1">
          <mxGeometry x="964.5" y="178.5" width="100" height="100" as="geometry">
            <mxPoint x="854.5" y="348.5" as="sourcePoint" />
            <mxPoint x="954.5" y="248.5" as="targetPoint" />
          </mxGeometry>
        </mxCell>
        <mxCell id="EQkmZRZ84IHPWCdHU_sQ-217" value="" style="shape=image;verticalLabelPosition=bottom;labelBackgroundColor=default;verticalAlign=top;aspect=fixed;imageAspect=0;image=data:image/png,iVBORw0KGgoAAAANSUhEUgAAAIAAAACACAMAAAD04JH5AAAC/VBMVEUAAACZUeRbaPWySuGEWexkYvOPVOj2pBt4XO5ga/NfY/RtX/GBWOzJQNnEQtVgZPNabvXsP71vX/DdOdJ5W+56XO3DQ9qbUea3R91vX/B6W+1oYPKlTeOPVemtS+DRPtVfZPRjYvN5XO88qfxeZvPWPNNYa/Q/oPngONGNVeqeUOXUPdVdZfX1oSFRcvfWPNM+o/zxoh9Offj1oR+NVenMP9daZvWgTuNKhfrMP9eYUuc+pPuSVOeWUudTbfY7qvzqOcfzjUD1mS3CQ9pBn/uQVOmKV+vwZYF+Wu3vYYbqOsfvYoPvW418W+5ElvvtQ7ahT+TuTqVHjPpZavWVUujjOdD0mC7oO8e9RtzsP7/vnxbvYIdElfvtUaLtSK6LV+vrNc/iONF4XO/mNtBQdff2oh7tUp3weV9/WuzIQdm1R96gT+S3RdrfONLuT6PxdWbvXJC3R9zvYIjwZIPvY4J0Xe9wXvCCWex4XO5rYPFtX/F9W+2LVupcZPRmYfK2R96JV+urS+GxSd+gT+S8RdyGWOvMQNiHWOvARNvDQ9pfY/SAWu3HQdmmTeKvSuCkTuN+Wu2oTOJiY/PiONFYZfWEWexoYfJ2XO96W+6OVem6Rt3lN9BkYvNyXvBZZfXPP9eTVOjaO9TnNtBOevh7W+7fOdJJiPlGj/qWUuebUebUPdXdOtNNf/jXPNSQVenrNc6dUOXSPtZKhflWZvaZUuZRc/dpYPLJQdlFkvpVafZLg/lNfPjFQtpScPdElvtUa/aVU+ieUOVBnftCmvtQdfdTbvezSN9HjPpIivq4R94+pvxPd/juTqU/ovy+Rdy0SN/tRrKiT+TwYoVMgfmtS+HsO8RAoPzvXY5FlPo8qf3vVpnwZYDwaXrzhU7uU57vWpLyfVrzgVTuSqz0iEj0jELydmTtQ7fxbnHyel/xcW31lzBaZPXwX4r1myrsN8vxbHbydGn0jzz2nyPvWJXuTKn0kjmFWOzvUaD1lDU7rf3sOMjtQrntP73tPr+YUufq6wTTAAAAdXRSTlMAHyAfv7/+/sAQ36AfHxBgL/6/o4BAwL+/UKB/wb+/gI/v35hwRz8fgC/vv5+af19eJ+Xj39/HpJ+ff3ZgRei9omNIPz3PpYJwQh8fEO/p5t/Pw7CPj31vaS8Q4494V+/v39DFv7+fmpCPf3Aw7+/X786/v68WmiLDAAAPEElEQVR42u2ad1yWVRTHH95A5YV4KSQDFzKDCA0ZgqhlamVq7pHtvbeAIY6UnCWaoFkpmQrmKFcYlqYNTTOzabb3Xla2+3TXuefe+9z3jRf60/tfvE9+z++cc8+95zyPc3QdXUdXY9Z5vU8fecpVI0/vfU5jno5KGX1NQcG1o8+I+p/oI6/49qtffvzk43c/+OLTm676Dxuu75hbP2fOkzNnzHhp2uJbRh/TbPypVxw+zPjvvvvhF5/+8Pn379wWwIQzTr7rLsKfyfkvTNr/fP4xzVN/SsuWnP8x43/5/Ttvf/PmlX5MiCpYqvMnPX/nPfdc2xz5XVselvwPOP+VN386NGSMVX4u4Qv/T5P8KVMGhzSZ3xL1I//9Q7+++NEo99Od16v6kT/v7ozrm8w/7If/8p8uCzpa+Hcy/t1zp/b4P/W/R/if/fX6hfrTKett/n+N8Q9MzUhvSvwD8r+7uL/69LG5S5cq/MWTJu0nfKF/6o7HBgdfE04JzH902WXq0yeD/pnof4W/atPwoB0QgH8c5S+7v7OSgJRfL/QD/zXkr6qrCzYNrtD5nxv8R5fdf/8l+HQu6HfxDzD9dXU17YPj91b4X5j6/2D8e+/tLB2g+n+xm7+p7umadT2CywDC/w34mv6/JH/FyfA0KcCy/tMCbMS/jvBb3BdcFnS18DH+nL96dZTYAoxv5t88qh/5910U1BFg5f8s/A/8hzpDBOol/wWof2r8KX/ChNjGn79d7Xyx/4gD7l1B+Wuvcdi6Bvxvy79/BH/y5OmhjTOhd1dX/L8BvqZ/7VqRBCcI/jRafzh/npZ/VP/k6RUVFfGRjSlACv9TyUf/LxP8h9Y+AgZw/xMHCP0drssn/Klk/7P4r2N8YkBVSWJc0/lDTmMrRq6Cgo7CAL7/CZ/rH0z+1o7x/5H6JzN+Scnss5rKv8D2OBjA9x/EP5/8rXAq838N6j/C+LMrA1ow0sb/ifDPvdAJYIAR/3bkb0V6/EF/ZWVZWWzg+mfn93cCGSD4ZANOoRuQGtCD81tw/1P9VYK/PDHcf/nxwx8ygP465iRYHcXqLAww8j+D/C2E8PX4Vwn+otIIf/zTKf8Xyf8e+FeyX0ep+f/I+qXkADzBYetEfgHG/UcvgRmUz+JPA8DjX8b4pQtj/TkA+Lp+nn4j3Px6MECeP1MIf+7UHUXkj8MJvwXEX+QfwRN+6cJWfjLApf/mCwY4Y85mN+7LZP1B/hwwgMYf+AdIAcqnSQD6Mf/LmAELx40bF27fgiZ/rLz/97/EpZ/Wf2kAxp8dgBn0lGrP858YoMa/lBnQ1h4Bg/+m3HopF3P9Kyh/reTPBANUPtv/hTQNL2L8igrIfx5/yn/weOslzOT/BL+MEfV3BeiHCzgYAPFn9fexVW2uY5eP9Iuo/1kAUD/jFxeH21IA+LQBpPwhMgA2/bT+gwHAp/7PKJQX4PQcyH+TX+yxbUKD/96NAyACpn44/0/kv3dQ9PdV+7DIfjz+s03+HXE2Awz+rz9DDsSo/PWSP2MaGID6841/NPLqRL7/dP4dPpsBJv8jUYBHWfQ/yc5fMIDXH8IvZP8dUtg3p2+/WAhEUfzAMoM/3mqAyj9E+C//eW7nMVEpI0gCoH7IP9YAgAHzVP3hw8X+7ydvH7HIf5DwiQFxtl2g6mcN6N/sAib0r1X0wwUMDID9H0Ll92X1jxUgeQEy+eNtxXgA579t8N36sQESBrQT/FVRhJ8j6u90tv9Di6gNcbr/xz/+uLUU3gT8Qwpf3X96A07qLxgg+JvapKf3Xcf1Q/0vq7w0Pn6gzh9f7XVs66rG86fx868DGMD49Pyt4fcf2/5H/uPV9gP5bDvf9D8OoO4EA4BPD2Dt/K2kB7Aef8qf6OdqqvJFA6rXP/T/Ynb+gQHI5w0Arf+Cv2iRhe917OvMVwLohwEEv3+zAQQY0Eb4H/jTzfq3UPN/9USfYw/BrTof9Zv5v1ic/2CA1C/8X1FCluSXsvijfj8OGHD7NzCAMv3v3n+iAW4nDOAN4DqRgOh/EgDMv2LOJwHwWOWPfcXGX23hYwMMBjA+wVMHkPOX3z8ql5v+5/o7RTtkJXuM8GsDIGgA/fkfBkBgAMZ/stTPLoBG/iE/epY32s3/FfmB4o8NOBog9OP9sxL3/zg33+MtL+/kaxQf899swOfNnQsGyAaA8qkDEuNi4+ECRvRj/ud5gF/+dc9oGX+dvwziD/WHHUCw/9UBRBuHrfayAYf8j6VHYCs9/uOrqzvxy2h4HuEvWbIAsnHAWPsARq+/OIDBASgYwP2PDaBo/yLjB/L8F/kXQYCgn/AXbMwTAQjIX4oDuGm8AcEBDBiADbCI/6VwDsdFXMod0CksWZyA0ZL/xHaWBudg/pv8R7T6D/UPByBggNqA8/tXotKER8bGRuOmS541S/K39wynDkD96v5/CPxfbx8A0gYADID6w/n8Apjos41jUsMo/+slSwj/ie3PPUVdMNbk3xBzUswlcAGifMx/YwAkDUA+c4DY/xGxNjzhc/2Ev/lysgXMAVxMFB39xeAFDOuvOQBsLwxQ80/wqQHFxYkRPqw3Cd5ZZAk+MYDwNz/rcS4wBrCXwfST8G0D0Cnc/zsIHwwIZXytAaL1B/afNywsgebj/PlM/xLwP+XvTXauNAZgKfAG6lhcx2grBBcYQPEwAFDqfzHUH2pAAuGL/EP+w92cIcYA1Al+hRL9WP/N848W4GTyVBj3/9cLFixg/Kcof+tQ50ZjABvVFANKqkA/9T/UP8l/wEcNYPnHHQD6t67JdswB5BkYAqv3cUVGhgsDIP/KFmH9B/0TCZ8Z4IX8V/lrGhxzAA0z+Nx6cwCO+3/TP3wACkmI/EWoXxxAlM89wPRz/nPM/w+vWfPqBsc1gC04lr0E5fUXB4A4gKAbkA+ApAGzS3AAoZ7/nD9/Pj2EMql+XgBQf8MG51zK1+pvbkzHgjn1Oh8HUDuQPyEUDMD9h/5n5x8NANl+mbQGlxvx37rm1YYN2c5pun6oP+B/4OMAZJPkTwYD1AGMfgGmfGKAlx7ClP+EwV851Blh489x8edB/aH64f4JBlC8uwFi8gmf7n8PzUKRfzz+nL/7fCfF1gBb438AGiAYQKMBRL70P+pHfjmpRB7hf8y/DStX7urjRF3sZwAzw4y/1F8D5z8YAPHXGmARf1H/MhO8G3V+A+UPIv87G0CsDqD/HmUAB/pZAwYGtML8lxuwGgLA+OVi/20H/zP9u3fVdqMjKGyA3fpxACz3X00LOQAGA7AAa/7nfCiAbP9vFvyGBsrfVZvGZlBuvn3/g37ZAIMBrvzT/I/17zkt/3bXEgfQ1f8Gy/7jBdBSf8D/hC8NwAYY9j/yof4DH/XX1g5K4//AKH0ACvz9Ch8bcNSPBlj1P4B8ff/x/Cf8Ld0dsUYoF3DUz/JvCuQf4/P6IxsgMCCA/3kAgP8s+J/xz1de/+MAEvVL/gFjAMP41IBWwgB/+VfO+Rh/yd9N+EMdXFEx+gDIzif6xQDkCB9AgAH6/q9G/+MFXOPTBNjSTZ+UdTT44P+7Zf6hfmhAysAAfQCh8eH8N/ngf1wpuTCAhReQqN+V/5yPBuABrOvX999W9P+gPra3b6jf8ga8BeoH/nJhwPGK/mqIv7n/nlXjP9Q6qMw1voBS9h91AAxgkb9IGgD8BE+y1I8NCPDR/4Ns/CjUr/HNAViV5JeCAZD/YeQ/2s7/7/w7eDDN9ikY1H8LH+vPEYUvDQD/UwPCvRo/L8EX7fF4klX+loPboi0GpID/Mf8zCkOc9HzUr/lfMUDG38Paf8nvmSVj3U3jP9PFYsBoPoDaj3zxGVwRSUAYQOkNIBog6k8YG0Bk8vh7GR4MIPwNu4FvN8D1BVSR+KUfH8BR/cDn5x8YgPtPzGBSfb44j9YXryH8lZK/02ZAiuBj/YNfeugDOGyAjxcGMP1kiQu4Rs66PJtewFX/79z5hq0MXG9+ATYYfgnhfGzA4fwHA9T6k+lR8Zdv3rtX4ddy/W/ssyVhlPkFTAa0iekTcACM+tGAML3+ZqbCP5klGhDwf63Qv2+fY1snmvVPfnwVlzP9yBFsAEvhAggGqPWXFeA8H5tIkPqzV56/dP9z/W/s62U14FrgwxcwOSFyzpRTgfsPB7BggNCP9c/rYfqZ/7e+2tCA/mcO2JNk/yZX8T//AiaHvHKKjOTvQIkDgA8DCDTAPH+z6G7EBlCLP+HvSXOsq4PKr5MHIJ+4teb+X4760QDK1wYw1AGZ2IBq+Uf4GAHDBeQCiPprCJ/Xv9bs17NQPwygwQCNT87fYdQBwMf9v03of8tWBeANJMRfvQBUhbIwpLdWVlu6fGAAxp8NYHy09AEf/Q98dIC5jskQfPIFEvAr2BdYAb8BC9MbgO3baQSyRf6D/1H/W2n+/6nrGN/8Aonc/wbGBTaA4HEA1pNOhOn5Cw3YFo3fPZCY4TsYv0b5AqiE53/rQAZw/8MAjk6AsyD/kL+T85OcgCtf8FtA/OELlOWt4tmKUFayMAD4G8UAalhqVjbqr5X8fcAPtArrDP9XifoHA1BlABMGBoD/jQGM4G/jfPR/4FWUI/Tj+aO9AVVewAkDhoEBMIBk9c8W/z1dnEaskH4q39BfrPAnJogpNPTf2ACo9Qf1J1ny325CX37/0PnuBkxsDR+vfxv96H9GxN/oBQInAtOPLwCWwwAe+Pz8E1eucJr/5gDGnX9JTuNXOjSgxgBeHwANg8fz9AbIxYf6E8QK1fig3xgAyuKUukAfwOD+O4j8Xk4wK1bj2wcQXnw8T/of9e/i9R/4v3cJcgTP4m/RjwMIpTqnIl8MYHaD/4HfywluRQ7k9Y/y7QOwTPXxYTgAp/yVwGcXAMr/Pc0Jcp1l9T/q178CCO/J+WT/Qf3nF1Dgd3eCXldbB9DVQn8nxscV3VMZwDEDtqn8JKcJKx71uwbw9C28YUE28A3/70F+0D6gBdCmH/iGBXABhwLYVP24Wru/AGD3zzyP7WlPNjYAzYw/7oXEceYAishv6+/xLDEA3KLmf68+TnOWL1HVT/idoPmzrbRusgGFC2gXp7krNiIR/Q9fAfg3ocvQg9gAJDVPPeZXXNuEiIi2yamB6FgT+nTvnpR0fvcuac7RdXQdXY1Y/wIujfZsvCS7WQAAAABJRU5ErkJggg==;" vertex="1" parent="1">
          <mxGeometry x="-70" y="60" width="128" height="128" as="geometry" />
        </mxCell>
        <mxCell id="184" value="Criação de cadastro no Ambiente Virtual de Aprendizagem (COLIBRI)" style="whiteSpace=wrap;shadow=0;fontColor=#FFFFFF;fontFamily=Helvetica;fontStyle=0;html=1;fontSize=12;plain-purple;strokeColor=none;fillColor=#2f5b7c;gradientColor=none;spacing=6;verticalAlign=middle;" parent="1" vertex="1">
          <mxGeometry x="184.5" y="160" width="130" height="65" as="geometry" />
        </mxCell>
        <mxCell id="202" value="" style="edgeStyle=segmentEdgeStyle;strokeColor=#2F5B7C;strokeWidth=3;html=1;endArrow=block;endFill=1;" parent="1" source="171" target="184" edge="1">
          <mxGeometry x="164.5" y="178.5" width="100" height="100" as="geometry">
            <mxPoint x="224.5" y="248.5" as="sourcePoint" />
            <mxPoint x="324.5" y="148.5" as="targetPoint" />
          </mxGeometry>
        </mxCell>
        <mxCell id="EQkmZRZ84IHPWCdHU_sQ-221" value="" style="edgeStyle=segmentEdgeStyle;strokeColor=#2F5B7C;strokeWidth=3;html=1;endArrow=block;endFill=1;" edge="1" parent="1" source="171" target="184">
          <mxGeometry width="100" height="100" relative="1" as="geometry">
            <mxPoint x="129" y="297" as="sourcePoint" />
            <mxPoint x="129" y="552" as="targetPoint" />
          </mxGeometry>
        </mxCell>
        <mxCell id="175" value="" style="edgeStyle=segmentEdgeStyle;strokeColor=#2F5B7C;strokeWidth=3;html=1;endArrow=block;endFill=1;" parent="1" source="184" target="172" edge="1">
          <mxGeometry width="100" height="100" relative="1" as="geometry">
            <mxPoint x="184.5" y="198.5" as="sourcePoint" />
            <mxPoint x="284.5" y="273.5" as="targetPoint" />
          </mxGeometry>
        </mxCell>
        <mxCell id="EQkmZRZ84IHPWCdHU_sQ-231" value="" style="endArrow=classic;html=1;rounded=0;" edge="1" parent="1" target="EQkmZRZ84IHPWCdHU_sQ-232">
          <mxGeometry width="50" height="50" relative="1" as="geometry">
            <mxPoint x="660" y="420" as="sourcePoint" />
            <mxPoint x="710" y="370" as="targetPoint" />
          </mxGeometry>
        </mxCell>
        <mxCell id="EQkmZRZ84IHPWCdHU_sQ-232" value="&lt;ul&gt;&lt;li&gt;Value 1&lt;/li&gt;&lt;li&gt;Value 2&lt;/li&gt;&lt;li&gt;Value 3&lt;/li&gt;&lt;/ul&gt;" style="text;strokeColor=none;fillColor=none;html=1;whiteSpace=wrap;verticalAlign=middle;overflow=hidden;strokeWidth=7;" vertex="1" parent="1">
          <mxGeometry x="660" y="330" width="100" height="80" as="geometry" />
        </mxCell>
        <mxCell id="EQkmZRZ84IHPWCdHU_sQ-230" style="edgeStyle=orthogonalEdgeStyle;rounded=0;orthogonalLoop=1;jettySize=auto;html=1;strokeWidth=3;strokeColor=light-dark(#2f5b76, #ededed);" edge="1" parent="1" source="173">
          <mxGeometry relative="1" as="geometry">
            <mxPoint x="354.5" y="165" as="targetPoint" />
            <mxPoint x="184.5" y="555" as="sourcePoint" />
            <Array as="points">
              <mxPoint x="100" y="433" />
              <mxPoint x="335" y="433" />
              <mxPoint x="335" y="165" />
            </Array>
          </mxGeometry>
        </mxCell>
      </root>
    </mxGraphModel>
  </diagram>
</mxfile>
